<?xml version="1.0" encoding="UTF-8" standalone="no"?>
<!DOCTYPE svg PUBLIC "-//W3C//DTD SVG 1.0//EN" "http://www.w3.org/TR/2001/REC-SVG-20010904/DTD/svg10.dtd">
<svg
   xmlns:svg="http://www.w3.org/2000/svg"
   xmlns="http://www.w3.org/2000/svg"
   xmlns:xlink="http://www.w3.org/1999/xlink"
   version="1.0"
   width="320"
   height="320"
   id="svg2">
  <defs
     id="defs4">
    <linearGradient
       id="linearGradient3240">
      <stop
         style="stop-color:#ff0000;stop-opacity:1"
         offset="0"
         id="stop3242" />
      <stop
         style="stop-color:#920000;stop-opacity:1"
         offset="1"
         id="stop3244" />
    </linearGradient>
    <linearGradient
       id="linearGradient3134">
      <stop
         style="stop-color:#ffeb00;stop-opacity:1"
         offset="0"
         id="stop3136" />
      <stop
         style="stop-color:#ff8d00;stop-opacity:1"
         offset="1"
         id="stop3138" />
    </linearGradient>
    <radialGradient
       cx="126.73664"
       cy="143.15707"
       r="144.24496"
       fx="126.73664"
       fy="143.15707"
       id="radialGradient3140"
       xlink:href="#linearGradient3134"
       gradientUnits="userSpaceOnUse" />
    <radialGradient
       cx="126.73664"
       cy="143.15707"
       r="144.24496"
       fx="126.73664"
       fy="143.15707"
       id="radialGradient6087"
       xlink:href="#linearGradient3134"
       gradientUnits="userSpaceOnUse" />
  </defs>
  <g
     id="layer1">
    <!--path
       d="M 304.96645 157.85236 A 141.74496 141.74496 0 1 1  21.476517,157.85236 A 141.74496 141.74496 0 1 1  304.96645 157.85236 z"
       transform="matrix(1.0595557,0,0,1.0595557,-12.942251,-7.2533635)"
       style="fill:url(#radialGradient6087);fill-opacity:1;stroke:#b26200;stroke-width:5;stroke-linejoin:round;stroke-miterlimit:4;stroke-dasharray:none;stroke-opacity:1"
       id="path2160" /-->
    <path
       d="M 81.052328,216.07658 C 93.846328,237.13419 172.35501,249.40281 137.3168,220.98838 M 137.3168,220.98838 L 107.37611,232.70068"
       style="fill:none;fill-rule:evenodd;stroke:#5f2700;stroke-width:9.47929859;stroke-linecap:round;stroke-linejoin:round;stroke-miterlimit:4;stroke-dasharray:none;stroke-opacity:1"
       id="path4135" />
    <g
       style="fill:#5f2700;fill-opacity:1"
       id="g3339">
      <g
         transform="translate(-2.6845638,7.5167785)"
         style="fill:#5f2700;fill-opacity:1"
         id="g3317">
        <path
           d="M 74.39186,139.40745 C 80.83869,140.99392 87.239107,143.38636 93.654774,145.47743 C 102.43145,148.30301 111.19347,151.32336 120.02042,153.32242 C 123.80093,154.18855 127.59718,154.52356 131.39569,154.64188 C 131.61932,154.65857 133.08023,154.62484 133.3444,154.62217 L 125.0126,167.71849 C 124.37032,167.69538 123.72782,167.70132 123.08575,167.64918 C 119.3865,167.2806 115.69657,166.61961 112.02203,165.59506 C 103.27359,163.16367 94.575757,159.99389 85.837641,157.39889 C 79.262454,155.39451 72.668813,152.93072 66.021325,152.56917 L 74.39186,139.40745 z "
           style="fill:#5f2700;fill-opacity:1;fill-rule:nonzero;stroke:none;stroke-width:1px;stroke-linecap:butt;stroke-linejoin:miter;stroke-opacity:1"
           id="path3295" />
        <path
           d="M 214.6383,141.5551 C 208.19147,143.14157 201.79105,145.53401 195.37538,147.62508 C 186.5987,150.45066 177.83668,153.47101 169.00973,155.47007 C 165.22922,156.3362 161.43297,156.67121 157.63446,156.78953 C 157.41083,156.80622 155.94992,156.77249 155.68575,156.76982 L 164.01755,169.86614 C 164.65983,169.84303 165.30233,169.84897 165.9444,169.79683 C 169.64365,169.42825 173.33358,168.76726 177.00812,167.74271 C 185.75656,165.31132 194.4544,162.14154 203.19251,159.54654 C 209.7677,157.54216 216.36134,155.07837 223.00883,154.71682 L 214.6383,141.5551 z "
           style="fill:#5f2700;fill-opacity:1;fill-rule:nonzero;stroke:none;stroke-width:1px;stroke-linecap:butt;stroke-linejoin:miter;stroke-opacity:1"
           id="path3313" />
      </g>
      <path
         d="M 238.71671,124.81579 C 238.57602,127.05848 237.87066,129.18643 237.18117,131.30375 C 236.15093,134.06642 234.46372,136.3845 232.50833,138.55356 C 230.89931,140.25892 229.33196,141.9963 227.82204,143.78757 L 220.61722,146.87635 C 222.13184,145.03581 223.72578,143.27239 225.37297,141.54499 C 227.2706,139.4281 229.07402,137.30297 230.11022,134.60286 C 230.80093,132.59657 231.51657,130.57493 231.61886,128.43233 L 238.71671,124.81579 z "
         style="fill:#5f2700;fill-opacity:1;fill-rule:nonzero;stroke:none;stroke-width:1px;stroke-linecap:butt;stroke-linejoin:miter;stroke-opacity:1"
         id="path3327" />
      <path
         d="M 245.93334,154.28381 C 243.261,154.184 240.59999,154.21734 237.93624,154.45132 C 233.38029,154.97899 228.85873,155.75441 224.31395,156.36848 L 230.45349,151.78573 C 235.02147,151.21885 239.55357,150.41257 244.12497,149.8755 C 246.86971,149.65683 249.61557,149.63261 252.36794,149.6088 L 245.93334,154.28381 z "
         style="fill:#5f2700;fill-opacity:1;fill-rule:nonzero;stroke:none;stroke-width:1px;stroke-linecap:butt;stroke-linejoin:miter;stroke-opacity:1"
         id="path3329" />
      <path
         d="M 59.540381,119.26827 C 61.112871,122.51261 63.254635,125.43974 65.351209,128.3588 C 66.897976,130.41338 68.453964,132.46103 70.01253,134.5065 L 63.338975,138.45005 C 61.845165,136.36336 60.360264,134.26963 58.805152,132.22711 C 56.67559,129.28753 54.518229,126.35863 52.651264,123.24161 L 59.540381,119.26827 z "
         style="fill:#5f2700;fill-opacity:1;fill-rule:nonzero;stroke:none;stroke-width:1px;stroke-linecap:butt;stroke-linejoin:miter;stroke-opacity:1"
         id="path3331" />
      <path
         d="M 48.7726,144.236 C 50.963042,144.2959 53.15473,144.27946 55.345761,144.27771 C 57.145954,144.27838 58.946107,144.27319 60.74627,144.26401 L 54.378664,148.89035 C 52.591065,148.88111 50.803476,148.87599 49.015847,148.87666 C 46.786533,148.87487 44.556644,148.85967 42.327879,148.91836 L 48.7726,144.236 z "
         style="fill:#5f2700;fill-opacity:1;fill-rule:nonzero;stroke:none;stroke-width:1px;stroke-linecap:butt;stroke-linejoin:miter;stroke-opacity:1"
         id="path3333" />
    </g>
    <g
       transform="translate(5.3691276,5.3691275)"
       id="g4343">
      <path
         d="M 209.71644,176.57963 C 211.17932,174.41377 213.09079,172.46257 214.91913,170.47764 C 216.35617,169.12687 217.79468,167.77657 219.23849,166.43102 C 223.75741,161.849 231.41026,160.01182 237.70724,157.29063 C 240.25851,156.52876 242.99207,156.40712 245.67749,156.16757 C 248.30001,155.86244 250.75874,156.47089 253.28496,156.89659 C 256.01269,157.32407 258.73509,157.76123 261.4642,158.18378 C 263.83716,158.46707 266.24093,158.44568 268.63393,158.48424 C 271.27206,158.50123 273.91033,158.48974 276.54851,158.48747 C 278.87516,158.47853 281.20183,158.47525 283.52849,158.47143 C 289.67457,157.42372 297.15978,153.11499 275.03934,162.92821 C 276.92739,163.3157 274.48779,164.13752 274.2956,164.5589 C 278.32266,162.78202 282.34973,161.00512 286.37679,159.22825 C 283.91229,160.5282 282.03611,162.35621 280.02548,164.03478 C 278.05923,165.87348 275.87201,167.56012 273.70857,169.25903 C 271.97955,170.63227 270.26326,172.01462 268.53375,173.38759 C 267.12011,174.46114 265.73594,175.5565 264.33857,176.64268 C 262.87312,177.59567 261.70289,178.75623 260.43093,179.8507 C 258.94928,181.36073 257.36049,182.80473 255.78724,184.25803 C 254.22234,185.71093 252.50079,187.05592 250.82293,188.42965 C 248.74538,189.80766 246.63729,191.15808 244.54633,192.52411 C 242.57303,193.75478 240.90903,195.23868 239.17839,196.66061 C 238.11488,198.07112 236.38064,198.85771 234.8009,199.84753 C 228.83236,202.97761 222.31885,205.47517 216.06858,208.21023 C 211.06878,212.12365 227.28851,202.35983 227.31164,202.34803 C 229.42027,202.46735 231.42916,201.9139 233.46809,201.57728 C 236.20451,201.04779 238.94764,200.59029 241.71909,200.18364 C 243.90626,199.9619 246.11359,199.97938 248.31403,199.95484 C 250.38579,199.95439 252.45756,199.9602 254.52933,199.96441 C 256.60099,199.96789 258.67264,199.96754 260.7443,199.96835 C 263.08894,199.91611 265.31283,200.48526 267.55054,200.91487 C 269.40966,201.8432 271.40709,202.35135 273.47677,202.86859 C 276.03489,203.20124 278.63577,203.15657 281.21948,203.1947 C 283.58386,203.46589 285.44685,202.66882 287.50632,202.02886 L 275.49991,209.38171 C 273.29793,209.78825 271.18184,210.33922 268.85146,210.09319 C 266.1764,210.02483 263.47295,210.07057 260.8558,209.56272 C 258.8348,208.94211 256.84128,208.30094 254.87298,207.57807 C 252.71271,207.23074 250.56697,206.78057 248.3244,206.91296 C 246.25203,206.91164 244.17966,206.91169 242.1073,206.90729 C 240.03992,206.90431 237.97245,206.89393 235.90511,206.90961 C 233.75732,206.96304 231.60006,206.96761 229.47737,207.26649 C 226.75283,207.72697 224.03614,208.20897 221.32139,208.70751 C 219.10044,209.02 216.91225,209.53916 214.64051,209.1512 C 219.05687,206.3283 222.28051,200.90119 228.01994,200.80472 C 225.52303,201.94967 218.01602,205.36335 220.51521,204.22137 C 222.18121,203.35886 223.99185,202.59992 225.04961,201.24483 C 226.81104,199.79483 228.44601,198.24531 230.38957,196.93316 C 232.48694,195.58726 234.53862,194.20997 236.6283,192.86279 C 238.32035,191.55248 240.19959,190.30993 241.69743,188.82887 C 243.26295,187.40929 244.8793,186.01224 246.31669,184.50718 C 247.52224,183.32223 248.71258,182.15322 250.11991,181.11832 C 251.56102,180.06454 253.01085,179.01721 254.33838,177.87013 C 256.10097,176.50007 257.96451,175.19631 259.61541,173.73436 C 261.77351,172.05446 264.01931,170.43104 265.97511,168.60514 C 267.98588,166.88232 269.92077,165.09784 272.10539,163.50309 C 289.57643,155.66147 283.43234,155.02409 289.33159,158.4716 C 280.83786,162.37809 278.69279,164.84502 271.11521,165.41341 C 268.80219,165.41188 266.48918,165.41012 264.17617,165.40844 C 261.526,165.41211 258.87575,165.41937 256.22566,165.39861 C 253.78311,165.32434 251.32565,165.32051 248.92009,164.93548 C 246.19277,164.47296 243.4596,164.03129 240.72726,163.58754 C 238.27516,163.26912 235.89078,162.82371 233.38173,163.18244 C 230.75464,163.49443 228.0949,163.69621 225.65559,164.59424 C 260.09918,148.90063 236.31281,158.98819 233.31796,161.71165 C 231.94512,163.14126 230.54259,164.54258 228.95104,165.84273 C 227.11725,167.73653 225.16273,169.5885 223.73935,171.69661 L 209.71644,176.57963 z "
         style="fill:#000000;fill-opacity:1;fill-rule:nonzero;stroke:none;stroke-width:1px;stroke-linecap:butt;stroke-linejoin:miter;stroke-opacity:1"
         id="path4329" />
      <path
         d="M 207.03188,175.5058 C 208.49476,173.33994 210.40623,171.38874 212.23457,169.40381 C 213.67161,168.05304 215.11012,166.70274 216.55393,165.35719 C 221.07285,160.77517 228.7257,158.93799 235.02268,156.2168 C 237.57395,155.45493 240.30751,155.33329 242.99293,155.09374 C 245.61545,154.78861 248.07418,155.39706 250.6004,155.82276 C 253.32813,156.25024 256.05053,156.6874 258.77964,157.10995 C 261.1526,157.39324 263.55637,157.37185 265.94937,157.41041 C 268.5875,157.4274 271.22577,157.41591 273.86395,157.41364 C 276.1906,157.4047 278.51727,157.40142 280.84393,157.3976 C 286.99001,156.34989 294.47522,152.04116 272.35478,161.85438 C 274.24283,162.24187 271.80323,163.06369 271.61104,163.48507 C 275.6381,161.70819 279.66517,159.93129 283.69223,158.15442 C 281.22773,159.45437 279.35155,161.28238 277.34092,162.96095 C 275.37467,164.79965 273.18745,166.48629 271.02401,168.1852 C 269.29499,169.55844 267.5787,170.94079 265.84919,172.31376 C 264.43555,173.38731 263.05138,174.48267 261.65401,175.56885 C 260.18856,176.52184 259.01833,177.6824 257.74637,178.77687 C 256.26472,180.2869 254.67593,181.7309 253.10268,183.1842 C 251.53778,184.6371 249.81623,185.98209 248.13837,187.35582 C 246.06082,188.73383 243.95273,190.08425 241.86177,191.45028 C 239.88847,192.68095 238.22447,194.16485 236.49383,195.58678 C 235.43032,196.99729 233.69608,197.78388 232.11634,198.7737 C 226.1478,201.90378 219.63429,204.40134 213.38402,207.1364 C 208.38422,211.04982 224.60395,201.286 224.62708,201.2742 C 226.73571,201.39352 228.7446,200.84007 230.78353,200.50345 C 233.51995,199.97396 236.26308,199.51646 239.03453,199.10981 C 241.2217,198.88807 243.42903,198.90555 245.62947,198.88101 C 247.70123,198.88056 249.773,198.88637 251.84477,198.89058 C 253.91643,198.89406 255.98808,198.89371 258.05974,198.89452 C 260.40438,198.84228 262.62827,199.41143 264.86598,199.84104 C 266.7251,200.76937 268.72253,201.27752 270.79221,201.79476 C 273.35033,202.12741 275.95121,202.08274 278.53492,202.12087 C 280.8993,202.39206 282.76229,201.59499 284.82176,200.95503 L 272.81535,208.30788 C 270.61337,208.71442 268.49728,209.26539 266.1669,209.01936 C 263.49184,208.951 260.78839,208.99674 258.17124,208.48889 C 256.15024,207.86828 254.15672,207.22711 252.18842,206.50424 C 250.02815,206.15691 247.88241,205.70674 245.63984,205.83913 C 243.56747,205.83781 241.4951,205.83786 239.42274,205.83346 C 237.35536,205.83048 235.28789,205.8201 233.22055,205.83578 C 231.07276,205.88921 228.9155,205.89378 226.79281,206.19266 C 224.06827,206.65314 221.35158,207.13514 218.63683,207.63368 C 216.41588,207.94617 214.22769,208.46533 211.95595,208.07737 C 216.37231,205.25447 219.59595,199.82736 225.33538,199.73089 C 222.83847,200.87584 215.33146,204.28952 217.83065,203.14754 C 219.49665,202.28503 221.30729,201.52609 222.36505,200.171 C 224.12648,198.721 225.76145,197.17148 227.70501,195.85933 C 229.80238,194.51343 231.85406,193.13614 233.94374,191.78896 C 235.63579,190.47865 237.51503,189.2361 239.01287,187.75504 C 240.57839,186.33546 242.19474,184.93841 243.63213,183.43335 C 244.83768,182.2484 246.02802,181.07939 247.43535,180.04449 C 248.87646,178.99071 250.32629,177.94338 251.65382,176.7963 C 253.41641,175.42624 255.27995,174.12248 256.93085,172.66053 C 259.08895,170.98063 261.33475,169.35721 263.29055,167.53131 C 265.30132,165.80849 267.23621,164.02401 269.42083,162.42926 C 286.89187,154.58764 280.74778,153.95026 286.64703,157.39777 C 278.1533,161.30426 276.00823,163.77119 268.43065,164.33958 C 266.11763,164.33805 263.80462,164.33629 261.49161,164.33461 C 258.84144,164.33828 256.19119,164.34554 253.5411,164.32478 C 251.09855,164.25051 248.64109,164.24668 246.23553,163.86165 C 243.50821,163.39913 240.77504,162.95746 238.0427,162.51371 C 235.5906,162.19529 233.20622,161.74988 230.69717,162.10861 C 228.07008,162.4206 225.41034,162.62238 222.97103,163.52041 C 257.41462,147.8268 233.62825,157.91436 230.6334,160.63782 C 229.26056,162.06743 227.85803,163.46875 226.26648,164.7689 C 224.43269,166.6627 222.47817,168.51467 221.05479,170.62278 L 207.03188,175.5058 z "
         style="fill:#afc6e9;fill-opacity:1;fill-rule:nonzero;stroke:none;stroke-width:1px;stroke-linecap:butt;stroke-linejoin:miter;stroke-opacity:1"
         id="path4335" />
    </g>
    <g
       transform="matrix(0.9002644,0,0,0.9609623,9.8144581,10.996464)"
       id="g4355">
      <path
         d="M 165.1527,229.5953 C 166.29228,228.0093 167.7813,226.58049 169.20557,225.12698 C 170.32502,224.13785 171.44561,223.14906 172.57033,222.16375 C 176.09055,218.80847 182.05208,217.46315 186.9574,215.4705 C 188.94483,214.9126 191.07426,214.82352 193.16619,214.64811 C 195.20912,214.42467 197.12446,214.87022 199.09237,215.18195 C 201.21726,215.49498 203.338,215.8151 205.46396,216.12452 C 207.31249,216.33197 209.18501,216.31631 211.04915,216.34454 C 213.10424,216.35698 215.15944,216.34857 217.21457,216.34691 C 219.02702,216.34036 220.83948,216.33796 222.65194,216.33516 C 227.43971,215.56795 233.27065,212.41279 216.03893,219.59874 C 217.50971,219.88249 215.60928,220.48429 215.45956,220.79285 C 218.59662,219.49169 221.73369,218.19052 224.87075,216.88936 C 222.95092,217.84128 221.48938,219.17988 219.92311,220.40905 C 218.39141,221.75548 216.68758,222.99056 215.00227,224.23462 C 213.65537,225.24021 212.31839,226.25247 210.97111,227.25786 C 209.86989,228.04399 208.79163,228.84609 207.70308,229.64147 C 206.5615,230.33932 205.6499,231.18916 204.65905,231.99061 C 203.50485,233.09637 202.26719,234.15377 201.04164,235.21798 C 199.82259,236.2819 198.48151,237.2668 197.17446,238.27274 C 195.55606,239.28182 193.91387,240.2707 192.28502,241.271 C 190.74783,242.17219 189.45158,243.25881 188.10342,244.30005 C 187.27495,245.33293 185.92399,245.90892 184.69338,246.63374 C 180.04391,248.92581 174.96992,250.75471 170.10099,252.75752 C 166.20617,255.62321 178.84126,248.47343 178.85928,248.46479 C 180.50189,248.55216 182.06681,248.14689 183.65512,247.90039 C 185.78678,247.51266 187.92367,247.17764 190.08261,246.87987 C 191.78641,246.71749 193.50591,246.73029 195.22004,246.71232 C 196.83393,246.71199 198.44783,246.71625 200.06173,246.71933 C 201.67554,246.72188 203.28935,246.72162 204.90316,246.72222 C 206.72963,246.68396 208.46203,247.10074 210.20519,247.41533 C 211.65344,248.09512 213.20943,248.46722 214.8217,248.84598 C 216.81446,249.08957 218.84053,249.05686 220.85323,249.08478 C 222.69507,249.28337 224.14633,248.6997 225.75065,248.23107 L 216.39771,253.61536 C 214.68238,253.91306 213.03396,254.31652 211.2186,254.13636 C 209.13474,254.0863 207.02877,254.11979 204.99002,253.74791 C 203.41567,253.29346 201.86273,252.82394 200.32943,252.2946 C 198.64659,252.04027 196.97507,251.71062 195.22812,251.80756 C 193.61375,251.8066 191.99939,251.80663 190.38503,251.80341 C 188.77455,251.80123 187.164,251.79363 185.55355,251.80511 C 183.88043,251.84424 182.19994,251.84758 180.54637,252.06645 C 178.42397,252.40364 176.30768,252.7566 174.1929,253.12166 C 172.46279,253.35049 170.7582,253.73066 168.98853,253.44657 C 172.42885,251.37943 174.94005,247.40531 179.41104,247.33467 C 177.46596,248.17308 171.61803,250.67283 173.56489,249.83659 C 174.8627,249.205 176.27318,248.64924 177.09717,247.65695 C 178.46931,246.59515 179.74295,245.46048 181.25697,244.49963 C 182.89081,243.51407 184.48906,242.50551 186.11691,241.51901 C 187.43501,240.55951 188.89893,239.64962 190.06574,238.56508 C 191.28527,237.52556 192.5444,236.50254 193.66412,235.40043 C 194.60324,234.53272 195.53051,233.67669 196.62681,232.91886 C 197.74943,232.14721 198.87884,231.38027 199.91298,230.5403 C 201.28603,229.53704 202.73772,228.58233 204.02376,227.51179 C 205.70491,226.28164 207.45438,225.09286 208.97794,223.7558 C 210.54432,222.49422 212.05159,221.1875 213.7534,220.01971 C 227.36326,214.27751 222.57704,213.81077 227.17253,216.33529 C 220.55595,219.1959 218.88495,221.00237 212.98205,221.41858 C 211.18022,221.41746 209.3784,221.41617 207.57657,221.41495 C 205.5121,221.41763 203.44757,221.42295 201.38316,221.40775 C 199.48043,221.35336 197.56608,221.35056 195.69216,221.06861 C 193.56759,220.72992 191.43846,220.40649 189.30998,220.08155 C 187.39981,219.84838 185.54239,219.52222 183.58785,219.7849 C 181.54136,220.01337 179.46943,220.16112 177.56922,220.81873 C 204.40062,209.32673 185.87115,216.71357 183.53817,218.70789 C 182.46874,219.75475 181.37617,220.7809 180.13636,221.73296 C 178.70785,223.11974 177.18529,224.47589 176.07648,226.0196 L 165.1527,229.5953 z "
         style="fill:#000000;fill-opacity:1;fill-rule:nonzero;stroke:none;stroke-width:1px;stroke-linecap:butt;stroke-linejoin:miter;stroke-opacity:1"
         id="path4327" />
      <path
         d="M 163.00505,227.98456 C 164.14463,226.39856 165.63365,224.96975 167.05792,223.51624 C 168.17737,222.52711 169.29796,221.53832 170.42268,220.55301 C 173.9429,217.19773 179.90443,215.85241 184.80975,213.85976 C 186.79718,213.30186 188.92661,213.21278 191.01854,213.03737 C 193.06147,212.81393 194.97681,213.25948 196.94472,213.57121 C 199.06961,213.88424 201.19035,214.20436 203.31631,214.51378 C 205.16484,214.72123 207.03736,214.70557 208.9015,214.7338 C 210.95659,214.74624 213.01179,214.73783 215.06692,214.73617 C 216.87937,214.72962 218.69183,214.72722 220.50429,214.72442 C 225.29206,213.95721 231.123,210.80205 213.89128,217.988 C 215.36206,218.27175 213.46163,218.87355 213.31191,219.18211 C 216.44897,217.88095 219.58604,216.57978 222.7231,215.27862 C 220.80327,216.23054 219.34173,217.56914 217.77546,218.79831 C 216.24376,220.14474 214.53993,221.37982 212.85462,222.62388 C 211.50772,223.62947 210.17074,224.64173 208.82346,225.64712 C 207.72224,226.43325 206.64398,227.23535 205.55543,228.03073 C 204.41385,228.72858 203.50225,229.57842 202.5114,230.37987 C 201.3572,231.48563 200.11954,232.54303 198.89399,233.60724 C 197.67494,234.67116 196.33386,235.65606 195.02681,236.662 C 193.40841,237.67108 191.76622,238.65996 190.13737,239.66026 C 188.60018,240.56145 187.30393,241.64807 185.95577,242.68931 C 185.1273,243.72219 183.77634,244.29818 182.54573,245.023 C 177.89626,247.31507 172.82227,249.14397 167.95334,251.14678 C 164.05852,254.01247 176.69361,246.86269 176.71163,246.85405 C 178.35424,246.94142 179.91916,246.53615 181.50747,246.28965 C 183.63913,245.90192 185.77602,245.5669 187.93496,245.26913 C 189.63876,245.10675 191.35826,245.11955 193.07239,245.10158 C 194.68628,245.10125 196.30018,245.10551 197.91408,245.10859 C 199.52789,245.11114 201.1417,245.11088 202.75551,245.11148 C 204.58198,245.07322 206.31438,245.49 208.05754,245.80459 C 209.50579,246.48438 211.06178,246.85648 212.67405,247.23524 C 214.66681,247.47883 216.69288,247.44612 218.70558,247.47404 C 220.54742,247.67263 221.99868,247.08896 223.603,246.62033 L 214.25006,252.00462 C 212.53473,252.30232 210.88631,252.70578 209.07095,252.52562 C 206.98709,252.47556 204.88112,252.50905 202.84237,252.13717 C 201.26802,251.68272 199.71508,251.2132 198.18178,250.68386 C 196.49894,250.42953 194.82742,250.09988 193.08047,250.19682 C 191.4661,250.19586 189.85174,250.19589 188.23738,250.19267 C 186.6269,250.19049 185.01635,250.18289 183.4059,250.19437 C 181.73278,250.2335 180.05229,250.23684 178.39872,250.45571 C 176.27632,250.7929 174.16003,251.14586 172.04525,251.51092 C 170.31514,251.73975 168.61055,252.11992 166.84088,251.83583 C 170.2812,249.76869 172.7924,245.79457 177.26339,245.72393 C 175.31831,246.56234 169.47038,249.06209 171.41724,248.22585 C 172.71505,247.59426 174.12553,247.0385 174.94952,246.04621 C 176.32166,244.98441 177.5953,243.84974 179.10932,242.88889 C 180.74316,241.90333 182.34141,240.89477 183.96926,239.90827 C 185.28736,238.94877 186.75128,238.03888 187.91809,236.95434 C 189.13762,235.91482 190.39675,234.8918 191.51647,233.78969 C 192.45559,232.92198 193.38286,232.06595 194.47916,231.30812 C 195.60178,230.53647 196.73119,229.76953 197.76533,228.92956 C 199.13838,227.9263 200.59007,226.97159 201.87611,225.90105 C 203.55726,224.6709 205.30673,223.48212 206.83029,222.14506 C 208.39667,220.88348 209.90394,219.57676 211.60575,218.40897 C 225.21561,212.66677 220.42939,212.20003 225.02488,214.72455 C 218.4083,217.58516 216.7373,219.39163 210.8344,219.80784 C 209.03257,219.80672 207.23075,219.80543 205.42892,219.80421 C 203.36445,219.80689 201.29992,219.81221 199.23551,219.79701 C 197.33278,219.74262 195.41843,219.73982 193.54451,219.45787 C 191.41994,219.11918 189.29081,218.79575 187.16233,218.47081 C 185.25216,218.23764 183.39474,217.91148 181.4402,218.17416 C 179.39371,218.40263 177.32178,218.55038 175.42157,219.20799 C 202.25297,207.71599 183.7235,215.10283 181.39052,217.09715 C 180.32109,218.14401 179.22852,219.17016 177.98871,220.12222 C 176.5602,221.509 175.03764,222.86515 173.92883,224.40886 L 163.00505,227.98456 z "
         style="fill:#d5d5ff;fill-opacity:1;fill-rule:nonzero;stroke:none;stroke-width:1px;stroke-linecap:butt;stroke-linejoin:miter;stroke-opacity:1"
         id="path4337" />
    </g>
    <g
       transform="translate(3.7583893,-4.295302)"
       id="g4347">
      <path
         d="M 229.58221,105.2877 C 231.24104,102.71379 233.40853,100.39499 235.48176,98.036094 C 237.11129,96.430838 238.74247,94.82614 240.37967,93.227088 C 245.50386,87.781816 254.18175,85.59851 261.32217,82.364645 C 264.21516,81.459238 267.31486,81.314681 270.35997,81.03 C 273.33376,80.667383 276.12181,81.390466 278.9864,81.896368 C 282.07949,82.404386 285.16653,82.923907 288.26119,83.426066 C 290.95199,83.762728 293.67772,83.737308 296.39125,83.783133 C 299.38273,83.803323 302.37438,83.789669 305.36592,83.786971 C 308.00421,83.776347 310.64252,83.772449 313.28082,83.767909 C 320.25012,82.52281 328.73791,77.402311 303.65461,89.06435 C 305.79555,89.524844 303.02919,90.501495 302.81125,91.002263 C 307.37771,88.890618 311.94417,86.778948 316.51062,84.667315 C 313.71602,86.212176 311.58854,88.384585 309.30861,90.379399 C 307.07899,92.564507 304.59881,94.568911 302.14559,96.587897 C 300.18499,98.219857 298.23881,99.862642 296.27765,101.49428 C 294.67466,102.77009 293.10509,104.07182 291.52056,105.36263 C 289.85882,106.49517 288.53185,107.87438 287.08952,109.17505 C 285.40941,110.96957 283.60782,112.68562 281.82384,114.41272 C 280.04934,116.13935 278.0972,117.73774 276.1946,119.37028 C 273.83878,121.00791 271.44833,122.61275 269.0773,124.23614 C 266.83969,125.69867 264.95281,127.46213 262.99036,129.15196 C 261.78441,130.82821 259.81788,131.76299 258.02654,132.9393 C 251.25856,136.65909 243.87262,139.62719 236.78517,142.87754 C 231.11569,147.52825 249.50793,135.92491 249.53416,135.91089 C 251.92522,136.05269 254.20319,135.39497 256.51521,134.99493 C 259.61816,134.36569 262.72871,133.82199 265.87137,133.33873 C 268.3515,133.07521 270.85448,133.09599 273.34965,133.06682 C 275.69891,133.06629 278.04818,133.07319 280.39744,133.0782 C 282.74659,133.08233 285.09572,133.08192 287.44486,133.08288 C 290.10355,133.0208 292.62531,133.69717 295.16274,134.20772 C 297.27088,135.31095 299.53585,135.91484 301.88275,136.52953 C 304.78351,136.92485 307.73275,136.87176 310.66253,136.91708 C 313.3436,137.23936 315.45613,136.29212 317.79145,135.53159 L 304.17687,144.26972 C 301.67995,144.75286 299.28043,145.40763 296.63791,145.11525 C 293.60455,145.03401 290.53899,145.08836 287.5713,144.48484 C 285.2796,143.7473 283.01906,142.98533 280.78712,142.12628 C 278.3375,141.71351 275.90436,141.17853 273.36141,141.33586 C 271.01146,141.33429 268.66152,141.33435 266.31158,141.32912 C 263.96729,141.32558 261.6229,141.31324 259.27865,141.33188 C 256.84318,141.39537 254.39698,141.4008 251.98997,141.75599 C 248.9005,142.30323 245.81993,142.87604 242.74156,143.4685 C 240.22313,143.83987 237.74185,144.45684 235.16583,143.99578 C 240.17372,140.64105 243.82914,134.19147 250.33733,134.07682 C 247.50598,135.43748 238.99346,139.4943 241.8274,138.13717 C 243.71654,137.11216 245.76971,136.21024 246.96914,134.59985 C 248.9665,132.87667 250.82047,131.03522 253.02435,129.47586 C 255.40265,127.87639 257.72913,126.23961 260.09871,124.63862 C 262.0174,123.08145 264.14835,121.6048 265.84681,119.84471 C 267.62202,118.15768 269.45487,116.49743 271.08478,114.70881 C 272.45181,113.30062 273.80159,111.91136 275.39742,110.68149 C 277.03155,109.42917 278.67558,108.18453 280.18092,106.82134 C 282.17959,105.19315 284.29274,103.64377 286.16477,101.90638 C 288.61193,99.909988 291.15853,97.980715 293.3763,95.810814 C 295.65639,93.763413 297.85045,91.642735 300.32768,89.747538 C 320.13883,80.42855 313.17179,79.671087 319.8612,83.768111 C 310.2298,88.410587 307.79741,91.342289 299.20487,92.017759 C 296.58204,92.015941 293.95922,92.013849 291.3364,92.011853 C 288.33126,92.016214 285.32603,92.024842 282.32098,92.000171 C 279.55127,91.911908 276.76466,91.907357 274.03689,91.449791 C 270.94427,90.900132 267.84501,90.375251 264.74669,89.847898 C 261.96615,89.469488 259.2624,88.940162 256.41729,89.366477 C 253.43832,89.737246 250.42233,89.977042 247.65629,91.044262 C 286.71333,72.393963 259.74096,84.382027 256.34498,87.618589 C 254.78825,89.317539 253.19787,90.982869 251.39314,92.527963 C 249.31373,94.778557 247.09742,96.979439 245.48339,99.484719 L 229.58221,105.2877 z "
         style="fill:#000000;fill-opacity:1;fill-rule:nonzero;stroke:none;stroke-width:1px;stroke-linecap:butt;stroke-linejoin:miter;stroke-opacity:1"
         id="path4331" />
      <path
         d="M 226.36073,102.60314 C 228.01956,100.02923 230.18705,97.710426 232.26028,95.35153 C 233.88981,93.746274 235.52099,92.141576 237.15819,90.542524 C 242.28238,85.097252 250.96027,82.913946 258.10069,79.680081 C 260.99368,78.774674 264.09338,78.630117 267.13849,78.345436 C 270.11228,77.982819 272.90033,78.705902 275.76492,79.211804 C 278.85801,79.719822 281.94505,80.239343 285.03971,80.741502 C 287.73051,81.078164 290.45624,81.052744 293.16977,81.098569 C 296.16125,81.118759 299.1529,81.105105 302.14444,81.102407 C 304.78273,81.091783 307.42104,81.087885 310.05934,81.083345 C 317.02864,79.838246 325.51643,74.717747 300.43313,86.379786 C 302.57407,86.84028 299.80771,87.816931 299.58977,88.317699 C 304.15623,86.206054 308.72269,84.094384 313.28914,81.982751 C 310.49454,83.527612 308.36706,85.700021 306.08713,87.694835 C 303.85751,89.879943 301.37733,91.884347 298.92411,93.903333 C 296.96351,95.535293 295.01733,97.178078 293.05617,98.809716 C 291.45318,100.08553 289.88361,101.38726 288.29908,102.67807 C 286.63734,103.81061 285.31037,105.18982 283.86804,106.49049 C 282.18793,108.28501 280.38634,110.00106 278.60236,111.72816 C 276.82786,113.45479 274.87572,115.05318 272.97312,116.68572 C 270.6173,118.32335 268.22685,119.92819 265.85582,121.55158 C 263.61821,123.01411 261.73133,124.77757 259.76888,126.4674 C 258.56293,128.14365 256.5964,129.07843 254.80506,130.25474 C 248.03708,133.97453 240.65114,136.94263 233.56369,140.19298 C 227.89421,144.84369 246.28645,133.24035 246.31268,133.22633 C 248.70374,133.36813 250.98171,132.71041 253.29373,132.31037 C 256.39668,131.68113 259.50723,131.13743 262.64989,130.65417 C 265.13002,130.39065 267.633,130.41143 270.12817,130.38226 C 272.47743,130.38173 274.8267,130.38863 277.17596,130.39364 C 279.52511,130.39777 281.87424,130.39736 284.22338,130.39832 C 286.88207,130.33624 289.40383,131.01261 291.94126,131.52316 C 294.0494,132.62639 296.31437,133.23028 298.66127,133.84497 C 301.56203,134.24029 304.51127,134.1872 307.44105,134.23252 C 310.12212,134.5548 312.23465,133.60756 314.56997,132.84703 L 300.95539,141.58516 C 298.45847,142.0683 296.05895,142.72307 293.41643,142.43069 C 290.38307,142.34945 287.31751,142.4038 284.34982,141.80028 C 282.05812,141.06274 279.79758,140.30077 277.56564,139.44172 C 275.11602,139.02895 272.68288,138.49397 270.13993,138.6513 C 267.78998,138.64973 265.44004,138.64979 263.0901,138.64456 C 260.74581,138.64102 258.40142,138.62868 256.05717,138.64732 C 253.6217,138.71081 251.1755,138.71624 248.76849,139.07143 C 245.67902,139.61867 242.59845,140.19148 239.52008,140.78394 C 237.00165,141.15531 234.52037,141.77228 231.94435,141.31122 C 236.95224,137.95649 240.60766,131.50691 247.11585,131.39226 C 244.2845,132.75292 235.77198,136.80974 238.60592,135.45261 C 240.49506,134.4276 242.54823,133.52568 243.74766,131.91529 C 245.74502,130.19211 247.59899,128.35066 249.80287,126.7913 C 252.18117,125.19183 254.50765,123.55505 256.87723,121.95406 C 258.79592,120.39689 260.92687,118.92024 262.62533,117.16015 C 264.40054,115.47312 266.23339,113.81287 267.8633,112.02425 C 269.23033,110.61606 270.58011,109.2268 272.17594,107.99693 C 273.81007,106.74461 275.4541,105.49997 276.95944,104.13678 C 278.95811,102.50859 281.07126,100.95921 282.94329,99.221816 C 285.39045,97.225424 287.93705,95.296151 290.15482,93.12625 C 292.43491,91.078849 294.62897,88.958171 297.1062,87.062974 C 316.91735,77.743986 309.95031,76.986523 316.63972,81.083547 C 307.00832,85.726023 304.57593,88.657725 295.98339,89.333195 C 293.36056,89.331377 290.73774,89.329285 288.11492,89.327289 C 285.10978,89.33165 282.10455,89.340278 279.0995,89.315607 C 276.32979,89.227344 273.54318,89.222793 270.81541,88.765227 C 267.72279,88.215568 264.62353,87.690687 261.52521,87.163334 C 258.74467,86.784924 256.04092,86.255598 253.19581,86.681913 C 250.21684,87.052682 247.20085,87.292478 244.43481,88.359698 C 283.49185,69.709399 256.51948,81.697463 253.1235,84.934025 C 251.56677,86.632975 249.97639,88.298305 248.17166,89.843399 C 246.09225,92.093993 243.87594,94.294875 242.26191,96.800155 L 226.36073,102.60314 z "
         style="fill:#80b3ff;fill-opacity:1;fill-rule:nonzero;stroke:none;stroke-width:1px;stroke-linecap:butt;stroke-linejoin:miter;stroke-opacity:1"
         id="path4339" />
    </g>
    <g
       id="g4351">
      <path
         d="M 125.95805,42.349735 C 128.04795,39.11006 130.7787,36.191481 133.39069,33.222435 C 135.44368,31.201965 137.49875,29.182197 139.5614,27.169535 C 146.01719,20.315793 156.95017,17.567755 165.94614,13.497421 C 169.59092,12.357823 173.49613,12.175875 177.33256,11.817558 C 181.07913,11.361147 184.5917,12.271262 188.2007,12.90802 C 192.09758,13.547442 195.98684,14.201342 199.88569,14.833389 C 203.27574,15.257131 206.7098,15.225136 210.12848,15.282814 C 213.89734,15.308227 217.66642,15.291041 221.43536,15.287645 C 224.75925,15.274273 228.08317,15.269367 231.40707,15.263652 C 240.18746,13.696497 250.88093,7.251534 219.27934,21.930067 C 221.97664,22.509672 218.49139,23.738942 218.21682,24.369239 C 223.96995,21.711397 229.72307,19.053524 235.47619,16.395698 C 231.95537,18.340152 229.27503,21.074474 226.40262,23.585265 C 223.5936,26.335571 220.46891,28.858433 217.37818,31.399648 C 214.90808,33.45373 212.45616,35.521436 209.98536,37.575112 C 207.96581,39.180922 205.98836,40.819357 203.99206,42.444047 C 201.89849,43.869529 200.22669,45.605484 198.40955,47.242584 C 196.29283,49.501273 194.02307,51.661195 191.7755,53.835026 C 189.53987,56.008264 187.08043,58.020093 184.68341,60.074904 C 181.71539,62.136122 178.70375,64.156069 175.71657,66.199364 C 172.89748,68.04019 170.52026,70.259786 168.04784,72.386706 C 166.5285,74.496533 164.05094,75.673102 161.79409,77.153676 C 153.26734,81.835624 143.96205,85.57145 135.03281,89.662533 C 127.89003,95.516192 151.06178,80.911541 151.09483,80.893895 C 154.10725,81.072373 156.97718,80.244528 159.89002,79.741013 C 163.79932,78.949015 167.71819,78.264682 171.67752,77.656422 C 174.80216,77.32474 177.95557,77.350895 181.09915,77.31418 C 184.05891,77.313513 187.01867,77.322198 189.97842,77.328504 C 192.93804,77.333702 195.89763,77.333186 198.85723,77.334394 C 202.20682,77.256257 205.3839,78.107576 208.58072,78.750184 C 211.2367,80.138775 214.09025,80.898867 217.04703,81.672552 C 220.7016,82.170125 224.41725,82.103303 228.10838,82.160345 C 231.48617,82.565986 234.14767,81.373734 237.08986,80.416486 L 219.93732,91.414813 C 216.79153,92.022922 213.76846,92.847054 210.43924,92.479047 C 206.61761,92.376794 202.75542,92.445202 199.01653,91.685576 C 196.12929,90.757264 193.28131,89.798204 190.46937,88.716953 C 187.38318,88.197416 184.31775,87.524058 181.11397,87.722083 C 178.15335,87.720107 175.19274,87.720183 172.23213,87.7136 C 169.27864,87.709144 166.32502,87.693612 163.37158,87.717074 C 160.30322,87.796986 157.22133,87.803821 154.18882,88.250884 C 150.2965,88.939672 146.4154,89.660645 142.53707,90.40635 C 139.36418,90.873779 136.2381,91.650334 132.99266,91.070016 C 139.30193,86.847554 143.90727,78.729731 152.10672,78.585426 C 148.5396,80.298033 137.81496,85.404187 141.38535,83.696023 C 143.76541,82.405884 146.35213,81.270675 147.86325,79.243742 C 150.37965,77.074846 152.71541,74.757088 155.492,72.794385 C 158.48834,70.781198 161.41939,68.721049 164.40475,66.705949 C 166.82204,64.746002 169.50675,62.887403 171.64658,60.67205 C 173.88311,58.548654 176.19225,56.458965 178.24572,54.207702 C 179.968,52.435271 181.66854,50.686666 183.67907,49.138679 C 185.73785,47.562435 187.80911,45.995857 189.70564,44.280065 C 192.22369,42.230729 194.88598,40.280588 197.24449,38.093806 C 200.32758,35.581029 203.53595,33.152731 206.33005,30.421566 C 209.20266,27.844586 211.96688,25.175375 215.08785,22.789968 C 240.04725,11.060538 231.26971,10.10715 239.69747,15.263907 C 227.5632,21.107202 224.49871,24.797216 213.67326,25.647402 C 210.36885,25.645114 207.06445,25.642481 203.76005,25.639968 C 199.97397,25.645457 196.18779,25.656317 192.40183,25.625265 C 188.91236,25.514172 185.40161,25.508444 181.96498,24.932524 C 178.0687,24.240691 174.16405,23.580044 170.26058,22.916287 C 166.75747,22.439997 163.35111,21.773756 159.76665,22.310342 C 156.01355,22.777013 152.21381,23.078835 148.72897,24.422101 C 197.9356,0.94773078 163.95403,16.036618 159.67555,20.110346 C 157.71428,22.248745 155.71061,24.344828 153.4369,26.289575 C 150.81712,29.122306 148.02486,31.892466 145.9914,35.04576 L 125.95805,42.349735 z "
         style="fill:#000000;fill-opacity:1;fill-rule:nonzero;stroke:none;stroke-width:1px;stroke-linecap:butt;stroke-linejoin:miter;stroke-opacity:1"
         id="path4333" />
      <path
         d="M 121.12584,39.665171 C 123.21574,36.425496 125.94649,33.506917 128.55848,30.537871 C 130.61147,28.517401 132.66654,26.497633 134.72919,24.484971 C 141.18498,17.631229 152.11796,14.883191 161.11393,10.812857 C 164.75871,9.6732592 168.66392,9.4913112 172.50035,9.1329942 C 176.24692,8.6765832 179.75949,9.5866982 183.36849,10.223456 C 187.26537,10.862878 191.15463,11.516778 195.05348,12.148825 C 198.44353,12.572567 201.87759,12.540572 205.29627,12.59825 C 209.06513,12.623663 212.83421,12.606477 216.60315,12.603081 C 219.92704,12.589709 223.25096,12.584803 226.57486,12.579088 C 235.35525,11.011933 246.04872,4.5669702 214.44713,19.245503 C 217.14443,19.825108 213.65918,21.054378 213.38461,21.684675 C 219.13774,19.026833 224.89086,16.36896 230.64398,13.711134 C 227.12316,15.655588 224.44282,18.38991 221.57041,20.900701 C 218.76139,23.651007 215.6367,26.173869 212.54597,28.715084 C 210.07587,30.769166 207.62395,32.836872 205.15315,34.890548 C 203.1336,36.496358 201.15615,38.134793 199.15985,39.759483 C 197.06628,41.184965 195.39448,42.92092 193.57734,44.55802 C 191.46062,46.816709 189.19086,48.976631 186.94329,51.150462 C 184.70766,53.3237 182.24822,55.335529 179.8512,57.39034 C 176.88318,59.451558 173.87154,61.471505 170.88436,63.5148 C 168.06527,65.355626 165.68805,67.575222 163.21563,69.702142 C 161.69629,71.811969 159.21873,72.988538 156.96188,74.469112 C 148.43513,79.15106 139.12984,82.886886 130.2006,86.977969 C 123.05782,92.831628 146.22957,78.226977 146.26262,78.209331 C 149.27504,78.387809 152.14497,77.559964 155.05781,77.056449 C 158.96711,76.264451 162.88598,75.580118 166.84531,74.971858 C 169.96995,74.640176 173.12336,74.666331 176.26694,74.629616 C 179.2267,74.628949 182.18646,74.637634 185.14621,74.64394 C 188.10583,74.649138 191.06542,74.648622 194.02502,74.64983 C 197.37461,74.571693 200.55169,75.423012 203.74851,76.06562 C 206.40449,77.454211 209.25804,78.214303 212.21482,78.987988 C 215.86939,79.485561 219.58504,79.418739 223.27617,79.475781 C 226.65396,79.881422 229.31546,78.68917 232.25765,77.731922 L 215.10511,88.730249 C 211.95932,89.338358 208.93625,90.16249 205.60703,89.794483 C 201.7854,89.69223 197.92321,89.760638 194.18432,89.001012 C 191.29708,88.0727 188.4491,87.11364 185.63716,86.032389 C 182.55097,85.512852 179.48554,84.839494 176.28176,85.037519 C 173.32114,85.035543 170.36053,85.035619 167.39992,85.029036 C 164.44643,85.02458 161.49281,85.009048 158.53937,85.03251 C 155.47101,85.112422 152.38912,85.119257 149.35661,85.56632 C 145.46429,86.255108 141.58319,86.976081 137.70486,87.721786 C 134.53197,88.189215 131.40589,88.96577 128.16045,88.385452 C 134.46972,84.16299 139.07506,76.045167 147.27451,75.900862 C 143.70739,77.613469 132.98275,82.719623 136.55314,81.011459 C 138.9332,79.72132 141.51992,78.586111 143.03104,76.559178 C 145.54744,74.390282 147.8832,72.072524 150.65979,70.109821 C 153.65613,68.096634 156.58718,66.036485 159.57254,64.021385 C 161.98983,62.061438 164.67454,60.202839 166.81437,57.987486 C 169.0509,55.86409 171.36004,53.774401 173.41351,51.523138 C 175.13579,49.750707 176.83633,48.002102 178.84686,46.454115 C 180.90564,44.877871 182.9769,43.311293 184.87343,41.595501 C 187.39148,39.546165 190.05377,37.596024 192.41228,35.409242 C 195.49537,32.896465 198.70374,30.468167 201.49784,27.737002 C 204.37045,25.160022 207.13467,22.490811 210.25564,20.105404 C 235.21504,8.3759742 226.4375,7.4225862 234.86526,12.579343 C 222.73099,18.422638 219.6665,22.112652 208.84105,22.962838 C 205.53664,22.96055 202.23224,22.957917 198.92784,22.955404 C 195.14176,22.960893 191.35558,22.971753 187.56962,22.940701 C 184.08015,22.829608 180.5694,22.82388 177.13277,22.24796 C 173.23649,21.556127 169.33184,20.89548 165.42837,20.231723 C 161.92526,19.755433 158.5189,19.089192 154.93444,19.625778 C 151.18134,20.092449 147.3816,20.394271 143.89676,21.737537 C 193.10339,-1.736833 159.12182,13.352054 154.84334,17.425782 C 152.88207,19.564181 150.8784,21.660264 148.60469,23.605011 C 145.98491,26.437742 143.19265,29.207902 141.15919,32.361196 L 121.12584,39.665171 z "
         style="fill:#5599ff;fill-opacity:1;fill-rule:nonzero;stroke:none;stroke-width:1px;stroke-linecap:butt;stroke-linejoin:miter;stroke-opacity:1"
         id="path4341" />
    </g>
  </g>
</svg>
