<?xml version="1.0" encoding="UTF-8" standalone="no"?>
<svg
   xmlns:dc="http://purl.org/dc/elements/1.1/"
   xmlns:cc="http://creativecommons.org/ns#"
   xmlns:rdf="http://www.w3.org/1999/02/22-rdf-syntax-ns#"
   xmlns:svg="http://www.w3.org/2000/svg"
   xmlns="http://www.w3.org/2000/svg"
   xmlns:xlink="http://www.w3.org/1999/xlink"
   xmlns:sodipodi="http://sodipodi.sourceforge.net/DTD/sodipodi-0.dtd"
   xmlns:inkscape="http://www.inkscape.org/namespaces/inkscape"
   version="1.0"
   width="320"
   height="320"
   id="svg2"
   sodipodi:version="0.32"
   inkscape:version="0.46"
   sodipodi:docname="SMirC-thumbsdown.svg"
   inkscape:output_extension="org.inkscape.output.svg.inkscape">
  <metadata
     id="metadata5704">
    <rdf:RDF>
      <cc:Work
         rdf:about="">
        <dc:format>image/svg+xml</dc:format>
        <dc:type
           rdf:resource="http://purl.org/dc/dcmitype/StillImage" />
      </cc:Work>
    </rdf:RDF>
  </metadata>
  <sodipodi:namedview
     inkscape:window-height="675"
     inkscape:window-width="640"
     inkscape:pageshadow="2"
     inkscape:pageopacity="0.0"
     guidetolerance="10.0"
     gridtolerance="10.0"
     objecttolerance="10.0"
     borderopacity="1.0"
     bordercolor="#666666"
     pagecolor="#ffffff"
     id="base"
     showgrid="false"
     inkscape:zoom="1.44375"
     inkscape:cx="160"
     inkscape:cy="160"
     inkscape:window-x="154"
     inkscape:window-y="66"
     inkscape:current-layer="svg2" />
  <defs
     id="defs4">
    <inkscape:perspective
       sodipodi:type="inkscape:persp3d"
       inkscape:vp_x="0 : 160 : 1"
       inkscape:vp_y="0 : 1000 : 0"
       inkscape:vp_z="320 : 160 : 1"
       inkscape:persp3d-origin="160 : 106.66667 : 1"
       id="perspective5706" />
    <linearGradient
       id="linearGradient3134">
      <stop
         style="stop-color:#ffeb00;stop-opacity:1"
         offset="0"
         id="stop3136" />
      <stop
         style="stop-color:#ff8d00;stop-opacity:1"
         offset="1"
         id="stop3138" />
    </linearGradient>
    <radialGradient
       cx="126.73664"
       cy="143.15707"
       r="144.24496"
       fx="126.73664"
       fy="143.15707"
       id="radialGradient3140"
       xlink:href="#linearGradient3134"
       gradientUnits="userSpaceOnUse" />
    <radialGradient
       cx="126.73664"
       cy="143.15707"
       r="144.24496"
       fx="126.73664"
       fy="143.15707"
       id="radialGradient6087"
       xlink:href="#linearGradient3134"
       gradientUnits="userSpaceOnUse" />
    <radialGradient
       cx="-76.234497"
       cy="155.17062"
       r="35.933708"
       fx="-76.234497"
       fy="155.17062"
       id="radialGradient6618"
       xlink:href="#linearGradient3134"
       gradientUnits="userSpaceOnUse"
       gradientTransform="matrix(0,-1.1905106,0.5948726,0,-172.28064,-20.500355)" />
    <radialGradient
       cx="-99.879364"
       cy="158.29388"
       r="35.933708"
       fx="-99.879364"
       fy="158.29388"
       id="radialGradient6620"
       xlink:href="#linearGradient3134"
       gradientUnits="userSpaceOnUse"
       gradientTransform="matrix(0.9518063,0,0,1.3312552,-9.2317672,-55.229106)" />
    <radialGradient
       cx="-99.879364"
       cy="158.29388"
       r="35.933708"
       fx="-99.879364"
       fy="158.29388"
       id="radialGradient6622"
       xlink:href="#linearGradient3134"
       gradientUnits="userSpaceOnUse"
       gradientTransform="matrix(1,0,0,0.4473047,-0.5369128,123.02014)" />
    <radialGradient
       cx="-99.879364"
       cy="158.29388"
       r="35.933708"
       fx="-99.879364"
       fy="158.29388"
       id="radialGradient6624"
       xlink:href="#linearGradient3134"
       gradientUnits="userSpaceOnUse"
       gradientTransform="matrix(1.0334394,0,0,0.4890482,9.7640545,94.685347)" />
    <radialGradient
       cx="-99.879364"
       cy="158.29388"
       r="35.933708"
       fx="-99.879364"
       fy="158.29388"
       id="radialGradient6626"
       xlink:href="#linearGradient3134"
       gradientUnits="userSpaceOnUse"
       gradientTransform="matrix(1.0960302,0,0,0.4370886,21.38393,76.107993)" />
    <radialGradient
       cx="-99.879364"
       cy="158.29388"
       r="35.933708"
       fx="-99.879364"
       fy="158.29388"
       id="radialGradient6628"
       xlink:href="#linearGradient3134"
       gradientUnits="userSpaceOnUse"
       gradientTransform="matrix(0.9418691,0,0,0.4421175,7.5792154,45.214652)" />
    <radialGradient
       inkscape:collect="always"
       xlink:href="#linearGradient3134"
       id="radialGradient5723"
       gradientUnits="userSpaceOnUse"
       cx="126.73664"
       cy="143.15707"
       fx="126.73664"
       fy="143.15707"
       r="144.24496"
       gradientTransform="matrix(1.0595557,0,0,1.0595557,-12.942251,-7.2533635)" />
  </defs>
  <!--path
     id="path2160"
     style="fill:url(#radialGradient5723);fill-opacity:1;stroke:#b26200;stroke-width:5.29799986;stroke-linejoin:round;stroke-miterlimit:4;stroke-dasharray:none;stroke-opacity:1"
     d="M 310.18669,160 C 310.18669,242.94582 242.94582,310.1867 160,310.1867 C 77.054185,310.1867 9.813315,242.94582 9.813315,160 C 9.813315,77.054188 77.054185,9.8133176 160,9.8133176 C 242.94582,9.8133176 310.18669,77.054188 310.18669,160 z" /-->
  <path
     id="path4135"
     style="fill:none;fill-rule:evenodd;stroke:#5f2700;stroke-width:13.46479416;stroke-linecap:round;stroke-linejoin:round;stroke-miterlimit:4;stroke-dasharray:none;stroke-opacity:1"
     d="M 51.128371,242.1391 C 100.82287,185.89401 156.98654,171.97147 224.84477,234.5574" />
  <g
     id="g12123"
     transform="matrix(-1,0,0,1,279.19463,0)">
    <path
       id="path12125"
       style="opacity:0.99173554;fill:#ffffff;fill-opacity:1;fill-rule:evenodd;stroke:#b26200;stroke-width:5;stroke-linecap:round;stroke-linejoin:round;stroke-miterlimit:4;stroke-dasharray:none;stroke-opacity:1"
       transform="translate(24.697987,34.09396)"
       d="M 102.01342,97.718124 C 102.01898,116.40337 86.873162,131.5537 68.187918,131.5537 C 49.502673,131.5537 34.35685,116.40337 34.362415,97.718124 C 34.35685,79.032881 49.502673,63.882546 68.187917,63.882546 C 86.873162,63.882546 102.01898,79.032881 102.01342,97.718124 L 102.01342,97.718124 z" />
    <path
       id="path12127"
       style="opacity:0.99173554;fill:#000000;fill-opacity:1;fill-rule:evenodd;stroke:#000000;stroke-width:5;stroke-linecap:round;stroke-linejoin:round;stroke-miterlimit:4;stroke-dasharray:none;stroke-opacity:1"
       transform="matrix(1.5678073,0,0,1.5678073,-63.670769,-91.499724)"
       d="M 114.36242,149.79866 C 114.36242,155.43271 109.55474,160 103.62416,160 C 97.693586,160 92.885904,155.43271 92.885904,149.79866 C 92.885904,144.16461 97.693586,139.59732 103.62416,139.59732 C 109.55474,139.59732 114.36242,144.16461 114.36242,149.79866 z" />
  </g>
  <g
     id="g6610"
     style="stroke:#b26200;stroke-width:5;stroke-miterlimit:4;stroke-dasharray:none;stroke-opacity:1"
     transform="matrix(-1.4395157,0,0,-1.4395157,128.59966,348.72219)">
    <path
       id="path6602"
       style="fill:url(#radialGradient6618);fill-opacity:1;fill-rule:evenodd;stroke:#b26200;stroke-width:5;stroke-linecap:butt;stroke-linejoin:miter;stroke-miterlimit:4;stroke-dasharray:none;stroke-opacity:1"
       d="M -92.397088,120.76291 C -87.636805,134.99594 -59.313101,132.2372 -56.694945,120.12372 C -53.821999,97.964781 -43.372528,69.941363 -48.024535,47.782417 C -53.949423,17.339641 -89.62416,15.015225 -101.0675,47.782417 C -105.62548,68.114303 -95.38486,97.053601 -92.397088,120.76291 z" />
    <path
       id="path4640"
       style="fill:url(#radialGradient6620);fill-opacity:1;fill-rule:evenodd;stroke:#b26200;stroke-width:5;stroke-linecap:butt;stroke-linejoin:miter;stroke-miterlimit:4;stroke-dasharray:none;stroke-opacity:1"
       d="M -122.1709,123.54089 C -133.55013,134.19387 -131.34453,197.57898 -121.65987,203.43812 C -103.94394,209.86742 -86.227991,213.84875 -68.512046,203.43812 C -60.583363,188.79294 -60.131588,140.83402 -68.512046,123.54089 C -84.767268,113.34065 -103.21545,116.85461 -122.1709,123.54089 z" />
    <path
       id="path6590"
       style="fill:url(#radialGradient6622);fill-opacity:1;fill-rule:evenodd;stroke:#b26200;stroke-width:5;stroke-linecap:butt;stroke-linejoin:miter;stroke-miterlimit:4;stroke-dasharray:none;stroke-opacity:1"
       d="M -119.19462,183.08726 C -131.15002,186.66668 -128.83274,207.96422 -118.65771,209.9329 C -100.04475,212.09316 -81.431768,213.4309 -62.818793,209.9329 C -54.488648,205.01209 -54.013999,188.89779 -62.818793,183.08726 C -79.897082,179.65995 -99.279378,180.84065 -119.19462,183.08726 z" />
    <path
       id="path6594"
       style="fill:url(#radialGradient6624);fill-opacity:1;fill-rule:evenodd;stroke:#b26200;stroke-width:5;stroke-linecap:butt;stroke-linejoin:miter;stroke-miterlimit:4;stroke-dasharray:none;stroke-opacity:1"
       d="M -112.8615,160.35808 C -125.21668,164.27154 -122.82191,187.55662 -112.30664,189.70902 C -93.07127,192.07088 -73.83588,193.53346 -54.600497,189.70902 C -45.991797,184.32899 -45.501276,166.71086 -54.600497,160.35808 C -72.249875,156.61093 -92.280304,157.90181 -112.8615,160.35808 z" />
    <path
       id="path6598"
       style="fill:url(#radialGradient6626);fill-opacity:1;fill-rule:evenodd;stroke:#b26200;stroke-width:5;stroke-linecap:butt;stroke-linejoin:miter;stroke-miterlimit:4;stroke-dasharray:none;stroke-opacity:1"
       d="M -108.6685,134.80323 C -121.77199,138.30089 -119.23218,159.11202 -108.08004,161.03573 C -87.679669,163.14666 -67.279278,164.45384 -46.878894,161.03573 C -37.748803,156.22732 -37.228574,140.48104 -46.878894,134.80323 C -65.597215,131.4542 -86.840798,132.60793 -108.6685,134.80323 z" />
    <path
       id="path6606"
       style="fill:url(#radialGradient6628);fill-opacity:1;fill-rule:evenodd;stroke:#b26200;stroke-width:5;stroke-linecap:butt;stroke-linejoin:miter;stroke-miterlimit:4;stroke-dasharray:none;stroke-opacity:1"
       d="M -104.18082,104.5852 C -115.44125,108.12311 -113.25866,129.17368 -103.67512,131.11954 C -86.144149,133.25474 -68.613155,134.57697 -51.082168,131.11954 C -43.236262,126.25579 -42.789204,110.32835 -51.082168,104.5852 C -67.167682,101.19764 -85.423269,102.36465 -104.18082,104.5852 z" />
  </g>
  <g
     transform="translate(1.301611,0)"
     id="g5725">
    <path
       d="M 102.01342,97.718124 C 102.01898,116.40337 86.873162,131.5537 68.187918,131.5537 C 49.502673,131.5537 34.35685,116.40337 34.362415,97.718124 C 34.35685,79.032881 49.502673,63.882546 68.187917,63.882546 C 86.873162,63.882546 102.01898,79.032881 102.01342,97.718124 L 102.01342,97.718124 z"
       transform="translate(24.697987,34.09396)"
       style="opacity:0.99173554;fill:#ffffff;fill-opacity:1;fill-rule:evenodd;stroke:#b26200;stroke-width:5;stroke-linecap:round;stroke-linejoin:round;stroke-miterlimit:4;stroke-dasharray:none;stroke-opacity:1"
       id="path5727" />
    <path
       d="M 114.36242,149.79866 C 114.36242,155.43271 109.55474,160 103.62416,160 C 97.693586,160 92.885904,155.43271 92.885904,149.79866 C 92.885904,144.16461 97.693586,139.59732 103.62416,139.59732 C 109.55474,139.59732 114.36242,144.16461 114.36242,149.79866 z"
       transform="matrix(1.5678073,0,0,1.5678073,-63.670769,-91.499724)"
       style="opacity:0.99173554;fill:#000000;fill-opacity:1;fill-rule:evenodd;stroke:#000000;stroke-width:5;stroke-linecap:round;stroke-linejoin:round;stroke-miterlimit:4;stroke-dasharray:none;stroke-opacity:1"
       id="path5729" />
  </g>
</svg>
