<?xml version="1.0" encoding="UTF-8" standalone="no"?>
<!DOCTYPE svg PUBLIC "-//W3C//DTD SVG 1.0//EN" "http://www.w3.org/TR/2001/REC-SVG-20010904/DTD/svg10.dtd">
<svg
   xmlns:svg="http://www.w3.org/2000/svg"
   xmlns="http://www.w3.org/2000/svg"
   xmlns:xlink="http://www.w3.org/1999/xlink"
   version="1.0"
   width="320"
   height="320"
   id="svg2">
  <defs
     id="defs4">
    <linearGradient
       id="linearGradient3134">
      <stop
         style="stop-color:#ffeb00;stop-opacity:1"
         offset="0"
         id="stop3136" />
      <stop
         style="stop-color:#ff8d00;stop-opacity:1"
         offset="1"
         id="stop3138" />
    </linearGradient>
    <radialGradient
       cx="126.73664"
       cy="143.15707"
       r="144.24496"
       fx="126.73664"
       fy="143.15707"
       id="radialGradient3140"
       xlink:href="#linearGradient3134"
       gradientUnits="userSpaceOnUse" />
    <radialGradient
       cx="126.73664"
       cy="143.15707"
       r="144.24496"
       fx="126.73664"
       fy="143.15707"
       id="radialGradient6087"
       xlink:href="#linearGradient3134"
       gradientUnits="userSpaceOnUse" />
  </defs>
  <g
     id="layer1">
    <!--path
       d="M 304.96645 157.85236 A 141.74496 141.74496 0 1 1  21.476517,157.85236 A 141.74496 141.74496 0 1 1  304.96645 157.85236 z"
       transform="matrix(1.0595557,0,0,1.0595557,-12.942251,-7.2533635)"
       style="fill:url(#radialGradient6087);fill-opacity:1;stroke:#b26200;stroke-width:5;stroke-linejoin:round;stroke-miterlimit:4;stroke-dasharray:none;stroke-opacity:1"
       id="path2160" /-->
    <path
       d="M 225.96692,234.50432 C 202.86082,295.85263 108.72984,180.94951 77.123586,227.2603"
       style="fill:none;fill-rule:evenodd;stroke:#5f2700;stroke-width:12.07477283;stroke-linecap:round;stroke-linejoin:round;stroke-miterlimit:4;stroke-dasharray:none;stroke-opacity:1"
       id="path4135" />
    <g
       id="g12119">
      <path
         d="M 102.01342 97.718124 A 33.825504 33.825504 0 1 1  34.362415,97.718124 A 33.825504 33.825504 0 1 1  102.01342 97.718124 z"
         transform="translate(24.697987,34.09396)"
         style="opacity:0.99173554;fill:#ffffff;fill-opacity:1;fill-rule:evenodd;stroke:#b26200;stroke-width:5;stroke-linecap:round;stroke-linejoin:round;stroke-miterlimit:4;stroke-dasharray:none;stroke-opacity:1"
         id="path9206" />
      <path
         d="M 114.36242 149.79866 A 10.738256 10.201343 0 1 1  92.885904,149.79866 A 10.738256 10.201343 0 1 1  114.36242 149.79866 z"
         transform="matrix(1.5678073,0,0,1.5678073,-63.670769,-91.499724)"
         style="opacity:0.99173554;fill:#000000;fill-opacity:1;fill-rule:evenodd;stroke:#000000;stroke-width:5;stroke-linecap:round;stroke-linejoin:round;stroke-miterlimit:4;stroke-dasharray:none;stroke-opacity:1"
         id="path11148" />
    </g>
    <g
       transform="matrix(-1,0,0,1,275.97316,5.9060403)"
       id="g12123">
      <path
         d="M 102.01342 97.718124 A 33.825504 33.825504 0 1 1  34.362415,97.718124 A 33.825504 33.825504 0 1 1  102.01342 97.718124 z"
         transform="translate(24.697987,34.09396)"
         style="opacity:0.99173554;fill:#ffffff;fill-opacity:1;fill-rule:evenodd;stroke:#b26200;stroke-width:5;stroke-linecap:round;stroke-linejoin:round;stroke-miterlimit:4;stroke-dasharray:none;stroke-opacity:1"
         id="path12125" />
      <path
         d="M 114.36242 149.79866 A 10.738256 10.201343 0 1 1  92.885904,149.79866 A 10.738256 10.201343 0 1 1  114.36242 149.79866 z"
         transform="matrix(1.5678073,0,0,1.5678073,-63.670769,-91.499724)"
         style="opacity:0.99173554;fill:#000000;fill-opacity:1;fill-rule:evenodd;stroke:#000000;stroke-width:5;stroke-linecap:round;stroke-linejoin:round;stroke-miterlimit:4;stroke-dasharray:none;stroke-opacity:1"
         id="path12127" />
    </g>
  </g>
</svg>
