<?xml version="1.0" encoding="UTF-8" standalone="no"?>
<!DOCTYPE svg PUBLIC "-//W3C//DTD SVG 1.0//EN" "http://www.w3.org/TR/2001/REC-SVG-20010904/DTD/svg10.dtd">
<svg
   xmlns:svg="http://www.w3.org/2000/svg"
   xmlns="http://www.w3.org/2000/svg"
   xmlns:xlink="http://www.w3.org/1999/xlink"
   version="1.0"
   width="320"
   height="320"
   id="svg2">
  <defs
     id="defs4">
    <linearGradient
       id="linearGradient21793">
      <stop
         style="stop-color:#ff0000;stop-opacity:1"
         offset="0"
         id="stop21795" />
      <stop
         style="stop-color:#ff0000;stop-opacity:0"
         offset="1"
         id="stop21797" />
    </linearGradient>
    <linearGradient
       id="linearGradient21785">
      <stop
         style="stop-color:#ff0000;stop-opacity:1"
         offset="0"
         id="stop21787" />
      <stop
         style="stop-color:#ff0000;stop-opacity:0"
         offset="1"
         id="stop21789" />
    </linearGradient>
    <linearGradient
       id="linearGradient3134">
      <stop
         style="stop-color:#ffeb00;stop-opacity:1"
         offset="0"
         id="stop3136" />
      <stop
         style="stop-color:#ff8d00;stop-opacity:1"
         offset="1"
         id="stop3138" />
    </linearGradient>
    <radialGradient
       cx="126.73664"
       cy="143.15707"
       r="144.24496"
       fx="126.73664"
       fy="143.15707"
       id="radialGradient3140"
       xlink:href="#linearGradient3134"
       gradientUnits="userSpaceOnUse" />
    <radialGradient
       cx="126.73664"
       cy="143.15707"
       r="144.24496"
       fx="126.73664"
       fy="143.15707"
       id="radialGradient6087"
       xlink:href="#linearGradient3134"
       gradientUnits="userSpaceOnUse" />
    <radialGradient
       cx="53.959732"
       cy="190.87248"
       r="17.449665"
       fx="53.959732"
       fy="190.87248"
       id="radialGradient21791"
       xlink:href="#linearGradient21785"
       gradientUnits="userSpaceOnUse"
       gradientTransform="matrix(1,0,0,1.2461538,0,-46.983988)" />
    <radialGradient
       cx="53.959732"
       cy="190.87248"
       r="17.449665"
       fx="53.959732"
       fy="190.87248"
       id="radialGradient21799"
       xlink:href="#linearGradient21793"
       gradientUnits="userSpaceOnUse"
       gradientTransform="matrix(1,0,0,1.2461538,0,-46.983988)" />
  </defs>
  <g
     id="layer1">
    <!--path
       d="M 304.96645 157.85236 A 141.74496 141.74496 0 1 1  21.476517,157.85236 A 141.74496 141.74496 0 1 1  304.96645 157.85236 z"
       transform="matrix(1.0595557,0,0,1.0595557,-12.942251,-7.2533635)"
       style="fill:url(#radialGradient6087);fill-opacity:1;stroke:#b26200;stroke-width:5;stroke-linejoin:round;stroke-miterlimit:4;stroke-dasharray:none;stroke-opacity:1"
       id="path2160" /-->
    <path
       d="M 91.014818,199.48583 C 117.88894,251.03382 148.2615,263.79366 184.95833,206.43437"
       style="fill:none;fill-rule:evenodd;stroke:#5f2700;stroke-width:9.47929859;stroke-linecap:round;stroke-linejoin:round;stroke-miterlimit:4;stroke-dasharray:none;stroke-opacity:1"
       id="path4135" />
    <g
       id="g12119">
      <path
         d="M 102.01342 97.718124 A 33.825504 33.825504 0 1 1  34.362415,97.718124 A 33.825504 33.825504 0 1 1  102.01342 97.718124 z"
         transform="translate(24.697987,34.09396)"
         style="opacity:0.99173554;fill:#ffffff;fill-opacity:1;fill-rule:evenodd;stroke:#b26200;stroke-width:5;stroke-linecap:round;stroke-linejoin:round;stroke-miterlimit:4;stroke-dasharray:none;stroke-opacity:1"
         id="path9206" />
      <path
         d="M 114.36242 149.79866 A 10.738256 10.201343 0 1 1  92.885904,149.79866 A 10.738256 10.201343 0 1 1  114.36242 149.79866 z"
         transform="matrix(1.5678073,0,0,1.5678073,-63.670769,-91.499724)"
         style="opacity:0.99173554;fill:#000000;fill-opacity:1;fill-rule:evenodd;stroke:#000000;stroke-width:5;stroke-linecap:round;stroke-linejoin:round;stroke-miterlimit:4;stroke-dasharray:none;stroke-opacity:1"
         id="path11148" />
    </g>
    <g
       transform="matrix(-1,0,0,1,279.19463,0)"
       id="g12123">
      <path
         d="M 102.01342 97.718124 A 33.825504 33.825504 0 1 1  34.362415,97.718124 A 33.825504 33.825504 0 1 1  102.01342 97.718124 z"
         transform="translate(24.697987,34.09396)"
         style="opacity:0.99173554;fill:#ffffff;fill-opacity:1;fill-rule:evenodd;stroke:#b26200;stroke-width:5;stroke-linecap:round;stroke-linejoin:round;stroke-miterlimit:4;stroke-dasharray:none;stroke-opacity:1"
         id="path12125" />
      <path
         d="M 114.36242 149.79866 A 10.738256 10.201343 0 1 1  92.885904,149.79866 A 10.738256 10.201343 0 1 1  114.36242 149.79866 z"
         transform="matrix(1.5678073,0,0,1.5678073,-63.670769,-91.499724)"
         style="opacity:0.99173554;fill:#000000;fill-opacity:1;fill-rule:evenodd;stroke:#000000;stroke-width:5;stroke-linecap:round;stroke-linejoin:round;stroke-miterlimit:4;stroke-dasharray:none;stroke-opacity:1"
         id="path12127" />
    </g>
    <path
       d="M 71.409397 190.87248 A 17.449665 21.744967 0 1 1  36.510067,190.87248 A 17.449665 21.744967 0 1 1  71.409397 190.87248 z"
       transform="matrix(1.5538247,-0.2743843,0.3147342,1.6912394,-93.716733,-113.91141)"
       style="opacity:1;fill:url(#radialGradient21799);fill-opacity:1;fill-rule:evenodd;stroke:none;stroke-width:16.20999908;stroke-linecap:round;stroke-linejoin:round;stroke-miterlimit:4;stroke-dasharray:none;stroke-opacity:1"
       id="path20812" />
    <path
       d="M 71.409397 190.87248 A 17.449665 21.744967 0 1 1  36.510067,190.87248 A 17.449665 21.744967 0 1 1  71.409397 190.87248 z"
       transform="matrix(-1.5538247,-0.2743843,-0.3147342,1.6912394,370.22677,-111.76376)"
       style="opacity:1;fill:url(#radialGradient21791);fill-opacity:1;fill-rule:evenodd;stroke:none;stroke-width:16.20999908;stroke-linecap:round;stroke-linejoin:round;stroke-miterlimit:4;stroke-dasharray:none;stroke-opacity:1"
       id="path21783" />
  </g>
</svg>
